<svg width="602" height="634" viewBox="0 0 602 634" fill="none" xmlns="http://www.w3.org/2000/svg">
<path d="M536.986 109.417C544.445 110.187 551.896 111.341 558.98 108.648C572.397 102.475 582.878 91.6851 595.68 83.2039C603.763 77.3388 611.418 71.9268 617.307 68.2163C619.424 66.8768 621.321 65.7654 623 64.8819V57.7857C619.27 60.7438 614.926 64.1124 610.198 67.6862C589.535 80.8954 570.144 100.175 546.289 107.1C547.791 99.5338 549.37 91.309 551.41 83.05C548.44 88.1798 545.358 93.1557 542.568 97.8495C538.838 103.244 528.4 101.705 520.676 105.843C515.973 108.836 510.058 112.435 506.858 113.538C505.287 115.564 503.794 113.256 503.794 112.478C506.96 101.363 507.575 89.9752 507.745 78.7666C505.68 86.8375 502.437 93.891 500.115 99.2858C483.771 116.573 464.892 129.971 444.955 141.718C461.478 134.818 478.684 129.227 494.132 123.251C499.501 122.396 502.881 123.798 507.293 126.73C528.408 139.478 548.542 153.32 567.225 169.564C561.25 168.017 556.787 172.642 553.799 176.498C539.06 193.503 520.701 202.335 500.977 207.183C535.339 202.626 568.206 205.746 590.294 240.433C598.496 253.539 586.565 267.415 573.891 267.415C554.875 268.57 536.286 270.596 517.484 272.545C511.225 273.178 504.929 273.793 498.596 274.392C453.856 274.392 397.885 275.153 365.819 238.244C358.556 227.984 354.98 215.442 358.992 203.524C361.065 204.31 363.114 206.824 378.468 219.05C384.936 220.531 391.534 221.367 398.166 221.546C404.895 221.711 411.627 221.426 418.317 220.691C436.053 220.101 455.871 215.476 475.91 211.492C460.258 213.245 444.331 213.672 429.131 214.621C422.431 214.715 415.825 214.681 409.262 214.621C402.698 214.561 396.178 214.382 389.717 214.253C383.743 214.253 374.055 208.859 375.549 204.233C381.523 185.911 393.131 172.445 407.555 161.887C394.599 168.487 381.575 174.976 368.841 181.876C377.043 134.083 418.795 104.792 440.422 62.3939C442.659 56.9991 444.144 51.6042 443.401 46.2008C441.916 33.0942 427.748 18.4486 434.448 13.0537C439.501 8.83016 446.03 7.37672 453.046 7.97519C442.428 4.23898 431.555 0.280478 420.297 -1.5919C415.825 -1.5919 412.838 -5.44781 410.149 -8.34615C408.4 -10.4665 408.34 -11.9883 407.845 -17.6568C407.845 -19.0162 407.725 -20.4611 407.632 -21.9316H404.653C403.689 -16.571 401.657 -11.595 397.927 -7.73913C382.565 7.59901 362.312 10.8564 344.533 3.31561C347.299 7.6503 348.98 12.0021 349.091 16.0204C349.347 25.8526 339.011 28.9647 326.533 28.4944C314.055 28.0242 299.717 23.2535 290.243 21.1075C281.973 17.4311 281.068 15.4391 284.107 8.16329C285.379 6.22311 286.443 4.15405 287.282 1.99041C283.863 7.35791 279.071 11.7096 273.404 14.5927C268.932 16.9011 259.979 11.5062 259.979 8.41978C261.276 -4.20811 273.105 -13.399 283.484 -21.9487H280.385C275.333 -13.8693 266.252 -8.02982 260.824 -0.138458C255.481 5.45304 254.303 6.5132 253.458 7.09458C245.358 -0.129906 243.011 -11.7147 245.009 -21.9744H240.28C240.784 -20.6577 241.296 -19.4094 241.842 -18.2381C243.987 -11.743 245.6 -5.08356 246.664 1.67407C245.605 11.9794 243.227 22.1054 239.589 31.8032C244.71 25.1943 250.403 18.8846 254.781 12.9939C259.253 7.59901 265.962 16.8498 272.303 17.8928C277.142 20.0815 279.327 20.928 288.331 23.8776C293.922 26.5195 299.888 27.8447 306.067 28.7338C314.431 30.7088 322.633 29.1699 330.818 31.4783C336.033 33.7952 337.526 39.9596 336.792 45.3544C332.474 64.7194 316.309 77.6038 298.804 85.5807L301.014 85.4353C309.95 84.6659 322.633 80.8185 327.848 90.0693C334.565 103.937 314.431 113.153 303.754 120.241C295.842 124.872 287.484 128.69 278.807 131.638C244.343 143.513 205.56 143.513 169.774 145.565C162.975 145.933 156.353 147.87 150.425 151.225C133.057 160.989 121.868 181.799 119.077 202.617C117.684 200.44 116.787 197.982 116.448 195.418C114.989 190.853 114.28 187.185 114.434 169.846C115.412 161.478 117.772 153.33 121.415 145.736C124.951 138.423 129.553 131.677 135.071 125.721C154.138 106.297 178.718 89.3767 205.552 88.5987C219.634 88.2653 233.555 88.0686 247.467 87.7438C240.277 84.1394 234.273 78.5427 230.166 71.619C227.548 67.1794 226.465 61.9984 227.085 56.8794C214.454 76.4069 196.539 91.4885 175.322 94.1902C166.922 95.2037 158.402 94.3275 150.383 91.6253C141.515 83.221 143.273 72.3458 147.882 61.1457C141.361 68.3189 133.501 73.9702 124.292 74.6627C118.317 74.6627 115.339 69.2679 113.845 64.6425C104.081 35.7702 102.844 5.66678 92.303 -21.9487H85.0655C97.0825 6.05151 112.317 33.932 105.643 65.4718C103.468 75.7147 98.8957 85.2937 92.303 93.4207C107.521 84.0161 125.427 80.1687 140.679 90.3771C144.212 93.9516 147.489 97.7714 150.485 101.808C152.619 103.227 152.61 106.468 151.868 106.502C145.646 110.854 139.964 115.934 134.943 121.635C120.647 137.571 113.879 157.432 111.046 178.336C109.826 187.691 109.224 197.116 109.245 206.55C114.622 248.153 120.587 288.234 112.385 331.376C111.634 336.001 104.926 329.067 103.432 325.211C90.7582 284.352 89.2646 241.954 78.7923 200.018C76.9061 190.434 79.0143 182.389 79.9958 173.232C81.6515 162.887 81.5406 152.713 77.6743 145.446C75.1138 135.571 59.4438 129.406 64.6672 120.925C67.0446 117.082 69.7458 113.449 72.7411 110.067C53.7596 121.233 30.1181 124.422 10.2319 119.386C3.52351 117.847 8.73827 96.2592 14.7041 85.4695C34.2148 50.1679 49.697 15.3621 61.4154 -22H56.5676C47.1792 19.8935 27.8905 60.3249 1.28735 93.1728C-3.80959 82.515 -7.57072 71.2666 -9.91037 59.6837C-9.09956 76.9883 -7.14508 94.0791 -0.1465 110.272C0.706985 114.154 1.43245 118.608 1.3215 121.284C-5.4637 130.236 -18.1294 137.93 -27.074 132.544C-36.2916 127.927 -47.0541 123.191 -56.8521 117.505C-48.0685 126.125 -40.0973 135.538 -33.0398 145.625C-30.0611 148.712 -27.0654 154.106 -30.0612 157.962C-35.276 165.657 -41.4296 172.035 -48.5647 176.43C-68.0839 204.216 -100.149 220.401 -132.206 223.453C-131.464 220.366 -131.464 217.289 -129.97 215.758C-115.623 202.934 -110.724 190.212 -111.595 177.875C-113.156 182.517 -115.811 187.023 -118.585 191.511C-128.937 214.595 -146.203 226.36 -165.97 229.737C-149.491 230.305 -132.994 230.02 -116.545 228.882C-114.309 228.882 -112.824 231.19 -110.57 232.729C-102.368 238.124 -99.3898 250.461 -88.3798 252.017C-79.8449 253.907 -70.2688 255.574 -63.4239 257.25C-60.633 257.395 -53.9246 258.96 -55.4182 262.021C-57.6545 265.699 -60.7883 268.747 -64.5249 270.878C-63.3129 270.374 -62.101 269.869 -60.8805 269.382C-42.7269 262.046 -24.0953 257.412 -5.44666 260.507C4.99147 262.046 7.97012 275.897 8.71266 286.721C9.53729 294.108 8.71526 301.586 6.30585 308.616C9.25049 304.825 12.8422 301.586 16.9147 299.049C18.0754 308.616 20.3286 318.414 22.4026 328.118C21.9758 320.5 22.138 312.883 22.138 306.026C21.3869 295.236 13.936 285.207 15.4211 273.648C15.4211 272.109 16.9147 271.34 17.6657 270.562C28.1039 267.484 38.542 269.023 48.9801 263.628C52.7098 261.311 57.9246 262.85 59.4182 265.936C78.8094 299.853 66.8691 355.357 109.45 369.747C116.007 371.671 122.767 372.819 129.592 373.166C142.189 373.047 153.361 367.66 166.087 368.43C157.517 377.358 146.815 383.95 134.994 387.581C150.13 384.16 164.411 377.688 176.969 368.558C182.755 367.096 187.586 366.079 194.32 364.924C204.809 365.361 224.064 360.008 219.984 372.91C218.277 388.496 209.29 403.133 193.083 402.039C184.922 405.705 176.435 408.593 167.734 410.665C157.994 413.055 148.492 416.331 139.347 420.455C130.519 424.452 121.196 427.245 111.626 428.756C122.025 430.663 132.245 433.44 142.181 437.058C145.535 443.223 147.959 451.704 149.171 461.049C150.429 470.747 150.334 480.574 148.889 490.246C142.458 484.16 135.228 478.982 127.398 474.856C119.484 470.769 110.828 468.323 101.947 467.666C100.377 467.495 98.798 467.35 97.2105 467.213C100.923 467.623 104.61 468.068 108.229 468.607C114.897 470.971 121.246 474.153 127.134 478.08C138.973 485.976 149.151 496.122 157.091 507.944C159.733 511.513 161.886 515.421 163.492 519.563C163.339 518.614 163.228 517.767 163.185 517.1C162.878 512.646 165.814 515.014 181.671 527.129C192.886 524.898 204.067 525.667 214.505 531.071C247.313 548.82 283.868 553.445 319.637 559.609C309.942 568.082 296.525 571.169 283.868 568.834C251.06 564.209 220.488 557.267 186.937 564.209C181.714 565.748 174.263 567.287 172.77 563.44C169.782 557.267 169.04 548.05 167.836 540.526C167.452 538.415 166.915 535.91 166.351 533.328C166.424 536.52 165.816 539.692 164.568 542.63C160.095 552.641 148.906 534.935 139.962 534.148C139.219 534.148 137.725 535.687 136.642 536.671C134.175 543.331 133.108 540.415 127.501 517.716C124.994 510.09 120.815 503.122 115.27 497.325C109.861 491.741 103.503 487.167 96.4936 483.816C79.68 475.592 61.1338 476.318 42.579 475.566C30.2657 481.418 20.218 491.168 13.9872 503.31C8.01282 511.004 -4.61023 502.951 -10.6614 498C-14.6643 490.819 -16.5163 485.689 -19.2987 466.11C-19.2987 457.458 -18.3087 447.549 -14.835 440.931C-11.3613 434.314 -6.1465 429.304 1.31296 428.534C18.8691 426.516 36.8435 424.926 54.7667 424.584C38.7297 418.933 24.9801 408.981 16.9659 393.848C7.27029 375.347 43.808 373.799 49.7738 376.885C65.4546 384.374 82.3877 388.879 99.7113 390.172C81.9417 387.786 64.2148 380.177 49.0313 368.404C47.5377 367.635 40.8293 370.721 38.5932 368.404C32.4566 363.642 28.5989 357.29 26.1835 350.074C26.9004 357.538 26.798 364.736 25.1764 371.448C21.4381 386.837 -10.6188 388.41 -28.5163 377.612C-34.4907 373.756 -35.9673 366.044 -38.8521 360.077C-44.596 351.433 -46.0043 349.561 -30.8037 341.9C-22.5761 341.481 -16.7127 338.036 -11.8734 333.197C-12.9146 333.915 -13.9872 334.587 -15.091 335.214C-24.7866 340.609 -37.4609 342.909 -47.899 341.379C-60.5733 339.455 -71.7966 343.311 -79.9644 350.638C-84.2938 354.443 -87.6803 359.205 -89.8563 364.546C-92.0323 369.888 -92.9381 375.664 -92.5021 381.417C-94.6358 376.928 -95.6173 372.2 -99.2703 370.174C-105.356 377.527 -113.191 387.573 -123.347 384.563C-118.653 387.932 -112.738 389.932 -105.313 389.932C-91.1451 389.932 -88.909 409.203 -87.3898 421.566C-86.6689 437.683 -91.6905 453.531 -101.558 466.281C-103.794 461.656 -105.287 456.261 -109.76 453.174C-115.412 449.101 -121.554 445.758 -128.041 443.223L-123.927 446.232C-106.593 459.535 -116.101 481.508 -130.115 496.538C-134.431 501.242 -139.374 505.328 -144.804 508.679C-170.186 524.915 -206.767 519.52 -225.424 495.632C-231.748 487.536 -232.115 478.67 -231.467 469.513C-230.818 460.356 -229.137 450.917 -231.373 441.666C-232.866 437.041 -235.102 432.416 -239.233 429.697C-242.047 425.938 -244.64 422.018 -247 417.958V437.896C-240.94 448.284 -236.246 458.544 -241.026 470.188C-242.435 473.676 -244.459 476.882 -247 479.653V498.325C-221.131 511.269 -193.802 522.572 -165.014 518.964C-158.096 518.131 -151.345 516.248 -144.991 513.381C-138.332 510.317 -132.242 506.139 -126.983 501.027C-110.579 484.834 -91.99 468.649 -85.8449 445.625C-83.3334 436.556 -82.8698 427.041 -84.4879 417.77C-79.1792 430.483 -78.5818 442.881 -80.5448 455.03C-82.5078 467.179 -87.0228 479.089 -91.9388 490.836C-97.1622 502.566 -101.634 514.125 -104.63 526.462C-105.364 536.867 -104.434 549.401 -105.919 560.473C-111.347 589.952 -140.707 597.339 -168.496 596.117C-165.782 597.04 -163.068 597.758 -160.542 597.382C-141.151 593.526 -109.094 598.151 -102.377 577.341C-102.377 570.399 -103.683 563.081 -103.777 555.967C-103.871 549.333 -102.923 542.861 -98.8521 537.03C-98.8521 536.884 -98.9118 536.747 -98.9289 536.611C-100.568 525.877 -99.1842 514.898 -94.9346 504.908C-91.7596 497.581 -88.8236 490.109 -86.3314 482.525C-78.872 459.758 -75.4409 435.921 -81.8592 411.666C-85.7767 398.234 -86.707 395.079 -87.8336 388.958C-88.0384 383.939 -88.2262 375.398 -84.4964 376.133C-77.7881 378.442 -76.3371 390.138 -73.5889 398.508C-70.2518 414.008 -65.788 429.372 -61.2816 444.727C-64.9943 429.295 -67.7596 413.324 -72.9146 400.269C-75.3215 392.181 -77.3357 384.409 -77.9246 377.493C-78.2404 370.798 -78.4026 364.138 -78.5306 357.589C-78.5306 351.425 -71.0711 342.943 -64.3627 348.338C-59.1394 353.733 -52.4139 355.272 -45.7226 358.358C-36.7781 362.984 -36.7781 375.321 -30.0697 383.024C-29.4233 383.772 -28.6199 384.368 -27.7169 384.768C-26.8139 385.169 -25.8336 385.364 -24.8464 385.341C-0.240387 378.399 14.67 403.843 29.5804 418.488C17.2817 419.258 3.12234 422.917 -7.54622 430.278C-12.8985 433.897 -17.1887 438.882 -19.973 444.719C-22.3015 452.521 -22.9646 460.727 -21.9189 468.803C-19.5121 488.801 -20.4424 494.238 -25.8961 499.24C-41.3784 493.067 -49.7937 480.106 -55.4523 464.716C-52.7297 474.318 -50.1693 483.936 -48.027 493.589L-47.9502 493.281C-38.845 498.711 -28.9597 502.705 -18.6415 505.122C-8.16927 507.148 3.25888 509.44 15.7027 509.397C24.4424 506.439 26.8663 505.926 31.4069 506.635C36.3059 507.909 44.5078 507.909 45.9929 512.535C50.3713 524.154 41.1366 534.696 31.0142 541.433C38.051 537.498 44.1744 532.113 48.9801 525.633C53.4524 520.238 60.9289 519.469 66.9033 522.555C78.8521 528.719 84.8265 541.057 87.037 554.189C89.2732 568.056 80.3286 577.316 72.9716 587.105C68.5761 592.5 65.0598 595.21 56.2859 581.197C54.9801 580.402 53.4865 579.633 52.0185 580.402C49.5263 581.645 47.0199 582.865 44.4993 584.061C48.6217 583.954 52.6349 585.396 55.7482 588.105C70.6586 601.212 63.9502 624.339 50.5334 635.898C29.2816 654.408 2.57611 656.862 -23.8478 655.802C-33.7967 655.356 -43.6771 653.924 -53.3442 651.527C-60.5301 649.891 -67.8376 648.848 -75.1935 648.406C-78.0441 648.518 -80.9459 648.543 -83.8649 648.5C-80.6131 648.62 -77.4296 648.748 -74.34 648.825C-65.4902 649.423 -56.7169 650.86 -48.138 653.117C-36.0782 656.033 -24.6671 656.383 -13.1451 656.375C-1.62303 656.366 9.89899 655.973 21.4467 656.742C11.7596 665.993 -3.15077 664.437 -13.7937 671.833C-20.0498 675.637 -28.6017 675.885 -40.6358 673.081C-50.5799 669.399 -61.1406 667.678 -71.7368 668.011C-81.4374 668.427 -90.9688 670.699 -99.8165 674.705C-136.679 692.198 -159.799 730.74 -164.033 771.411C-170.34 786.663 -172.653 788.014 -175.248 783.534C-185.216 766.332 -188.741 746.48 -184.465 727.859C-184.943 729.09 -185.421 730.312 -185.89 731.544C-188.869 740.769 -200.058 748.48 -209.745 743.086C-214.216 740.892 -218.212 737.839 -221.506 734.1C-212.809 747.617 -201.458 758.826 -188.963 768.196C-179.421 775.566 -175.486 793.187 -187.418 800.121C-195.561 804.93 -204.908 807.303 -214.354 806.96C-223.205 806.678 -231.04 803.985 -235.213 799.385C-239.794 794.864 -243.757 789.755 -247 784.193V801.506C-245.145 807.775 -243.253 814.045 -241.324 820.315C-239.276 826.958 -237.176 833.593 -235.102 840.236C-233.26 845.842 -233.013 851.851 -234.389 857.589C-235.766 863.328 -238.711 868.569 -242.895 872.724C-244.559 874.135 -245.925 875.383 -247 876.435V879H-225.45C-226.265 877.968 -226.999 876.873 -227.643 875.725C-232.115 867.244 -223.171 849.512 -225.407 834.097C-216.398 835.202 -207.325 835.699 -198.249 835.585C-189.27 835.491 -180.326 834.841 -171.509 833.875C-149.233 836.987 -109.836 822.487 -100.013 849.606C-99.927 843.398 -99.1686 837.217 -97.7511 831.173C-99.5178 834.396 -101.797 834.217 -106.755 832.302C-119.558 826.317 -133.7 831.677 -146.374 827.83C-141.612 821.385 -137.45 814.517 -133.939 807.311C-142.764 820.46 -155.617 830.027 -173.088 832.233C-179.847 833.706 -186.76 834.35 -193.674 834.148C-207.717 833.724 -221.387 829.522 -233.25 821.982C-235.171 819.776 -236.357 816.852 -236.34 814.988C-235.102 811.654 -232.073 809.346 -230.63 809.346C-211.615 808.191 -187.956 807.901 -174.215 795.145C-169.24 790.47 -165.777 784.41 -164.272 777.746C-156.812 749.224 -150.095 716.847 -125.498 698.345C-121.017 712.991 -119.523 728.406 -118.9 744.197C-118.297 753.835 -118.87 763.511 -120.607 773.009C-120.667 773.334 -120.735 773.659 -120.795 773.984L-119.515 770.034C-118.593 767.576 -116.764 765.565 -114.406 764.417C-112.048 763.268 -109.341 763.07 -106.841 763.861C-100.132 766.178 -95.6515 772.343 -92.6728 779.251C-88.6785 790.451 -90.3599 802.549 -92.9971 814.304C-90.2404 805.866 -87.1081 797.633 -84.4623 790.083C-82.2262 781.611 -76.2603 772.351 -67.3073 772.351C-40.4737 771.582 -21.8336 801.651 -21.8336 827.069C-21.3215 844.434 -22.8919 862.166 -20.3826 878.915H-18.4367C-20.6899 868.792 -19.2048 858.276 -12.138 850.966C7.99574 828.617 22.9062 794.691 51.2419 791.614C73.6117 789.297 98.9602 799.308 116.858 814.698C119.836 817.006 113.871 825.487 108.656 827.026C81.0626 836.277 53.478 843.22 46.0441 875.546L44.1579 878.872H47.9644C49.8506 863.764 61.6629 849.734 72.1181 845.528C90.7582 837.833 113.128 829.343 134.115 820.734C141.494 816.923 148.676 812.74 155.632 808.2C176.499 794.615 195.523 778.045 213.046 759.928C197.376 804.806 175.893 850.119 139.714 878.949H142.744C168.69 856.446 186.366 826.881 201.831 795.495C207.805 782.397 232.403 763.861 235.381 775.455C238.198 789.134 232.275 804.524 225.43 820.169C242.832 794.52 273.225 772.633 297.182 758.398C304.71 752.465 315.916 744.625 311.435 736.913C306.61 728.879 299.311 722.632 290.636 719.112C283.646 716.154 276.357 714.837 268.94 714.068C270.972 714.701 272.969 715.385 274.915 716.094C286.863 719.95 309.208 724.576 305.478 739.23C298.018 767.743 264.511 771.599 244.343 788.561C246.579 783.936 248.815 779.311 246.579 775.455C240.605 763.887 213.771 771.599 221.017 753.089C220.505 750.284 221.555 748.438 223.441 741.393C224.96 733.057 211.492 727.662 213.028 725.345C217.399 718.455 224.232 713.498 232.129 711.486C228.694 710.949 225.3 710.172 221.973 709.16C215.999 707.622 206.312 706.074 204.818 697.601C204.075 687.572 213.028 680.639 221.222 679.091C238.377 675.244 254.03 682.178 270.144 682.366C275.444 682.862 280.744 683.366 285.993 683.964C282.4 683.109 278.815 682.152 275.265 681.092C267.031 678.722 259.031 675.599 251.367 671.764C243.976 667.635 241.415 664.976 239.726 661.265C236.167 654.425 239.154 645.944 245.862 642.088C251.085 639.78 256.309 639.01 261.523 640.549C301.04 652.117 337.578 664.488 377.845 675.244C380.836 676.052 383.774 677.043 386.644 678.211C379.334 673.628 371.321 670.28 362.926 668.302C327.882 659.829 295.817 649.8 265.245 632.846C270.477 625.151 280.164 625.151 287.623 628.221C298.385 632.467 309.385 636.082 320.568 639.044C310.242 633.985 300.217 628.332 290.542 622.116C289.417 620.422 288.933 618.382 289.175 616.362C289.418 614.342 290.371 612.474 291.865 611.096C303.984 612.028 319.637 612.028 324.852 599.69C336.041 571.169 345.737 515.673 376.309 524.915C382.001 526.454 385.134 530.515 386.696 536.081C386.696 531.438 386.627 527.428 386.44 524.504C385.262 513.39 400.949 504.105 406.129 509.5C412.539 516.502 413.162 525.265 411.745 534.456C412.437 531.293 413.102 528.121 413.589 524.915C414.331 517.22 413.589 506.422 405.387 504.883C395.691 504.105 383.777 514.168 381.489 510.295C377.384 502.181 374.021 493.512 370.198 484.928C366.374 476.344 362.098 467.828 356.132 460.134C354.639 457.825 355.381 454.739 355.501 451.995C355.97 449.079 467.965 751.31 473.896 746.967C490.821 732.946 408.306 423.9 422.491 445.48C429.064 455.461 432.829 467.033 433.39 478.977C434.081 461.185 430.514 443.761 418.761 426.978C446.346 410.024 492.579 392.292 520.019 419.035C520.872 420.463 521.307 421.874 522.579 426.687C523.185 431.612 520.949 437.007 517.219 438.546C497.085 444.71 483.669 457.047 473.896 475.797C468.716 483.218 463.484 490.596 458.67 498.094C449.043 513.091 441.054 528.608 438.263 546.101C437.084 553.398 436.906 560.822 437.734 568.168C439.09 576.525 441.573 584.659 445.117 592.346C448.69 600.14 453.152 607.493 458.414 614.259C446.388 618.936 434.448 610.446 426.255 601.973C411.344 586.584 412.829 564.97 419.085 545.331C420.707 539.56 422.397 533.806 424.01 528.07C421.569 534.909 418.889 541.749 416.329 548.469C413.987 555.421 412.298 562.577 411.284 569.843C408.814 562.412 408.159 554.496 409.373 546.759C409.868 543.177 410.61 539.654 411.361 536.141C400.863 563.132 409.902 588.388 427.902 606.137C434.038 612.162 441.026 617.25 448.642 621.235C445.172 624.214 441.205 626.555 436.923 628.152C442.822 628.118 448.714 627.724 454.565 626.972C462.784 626.117 470.994 625.108 479.205 625.878C495.908 626.989 513.788 629.725 528.331 638.702C508.701 616.713 492.801 592.303 508.266 563.414C520.889 565.859 533.683 568.116 546.186 571.16C533.555 563.115 523.236 553.599 517.962 540.287C514.24 530.258 542.568 519.469 558.972 523.325C576.784 527.488 601.236 531.643 622.983 538.97V533.037C592.189 506.028 560.977 483.671 519.455 475.532C514.24 473.993 511.996 468.598 511.996 463.973C511.996 457.03 511.996 448.583 518.824 444.642C524.798 439.409 528.955 433.134 530.098 429.74C538.932 431.005 548.021 432.176 557.273 433.459C546.707 427.679 537.916 419.685 532.095 408.468C532.846 398.833 539.922 391.309 549.455 385.461C558.989 379.613 570.963 375.415 581.495 372.423C588.698 370.311 596.056 368.507 603.455 366.891C605.248 366.506 607.048 366.121 608.849 365.754C606.353 365.445 603.945 364.63 601.774 363.359C599.602 362.087 597.711 360.386 596.218 358.358C590.243 349.877 600.69 336.001 610.386 329.067C614.014 326.163 618.351 324.282 622.949 323.621V301.836C613.765 321.432 598.394 337.617 589.663 357.563C585.156 365.523 581.376 367.866 564.613 372.91C549.25 377.681 538.812 390.787 524.644 400.038C516.451 405.433 504.519 409.289 500.047 399.269C487.868 372.884 501.404 345.098 521.111 326.16C503.476 342.151 492.274 364.04 489.609 387.718C488.858 388.496 487.373 388.496 486.895 389.428C484.001 390.043 477.908 386.299 466.625 380.211C463.509 379.211 460.522 377.646 457.543 377.646C407.589 380.733 358.377 376.877 308.423 373.791C303.199 373.021 302.448 360.684 307.671 356.837C337.543 334.479 374.781 342.182 409.083 342.182C417.276 342.182 425.487 341.413 431.444 335.249C453.822 309.813 475.441 278.975 510.818 275.401C518.321 274.539 525.921 275.276 533.12 277.564C540.719 280.147 547.55 284.597 552.989 290.508C556.718 294.355 550.01 301.298 545.538 305.897C541.799 309.317 537.856 312.455 533.862 315.601C535.569 314.404 537.276 313.284 539.043 312.233C546.724 307.436 554.294 302.555 561.285 297.322C582.263 281.608 597.728 262.722 592.514 233.43C603.361 237.919 615.481 244.767 622.966 254.42V250.145C607.398 232.276 580.539 220.221 563.427 204.934C558.954 200.309 554.482 193.375 558.955 186.433C564.178 179.499 573.122 180.268 580.582 181.038C596.585 183.552 609.762 191.605 622.966 199.48V195.983C580.761 178.028 541.543 150.362 514.966 112.495C522.076 108.263 529.535 108.648 536.986 109.417ZM38.9175 260.524C34.8123 265.902 27.3528 264.363 22.138 262.046C0.322922 252.804 -21.4836 255.258 -43.5804 255.762C-51.0189 256.003 -58.4651 255.766 -65.8734 255.053C-75.5178 255.112 -82.9431 248.948 -89.6771 242.006C-96.3855 234.311 -94.9004 224.274 -88.9346 217.34C-77.7539 205.003 -61.3499 198.838 -51.7312 185.219C-44.7582 180.191 -36.4623 175.814 -28.4993 174.523C-20.5363 173.232 -12.9232 174.951 -6.24893 184.21C13.2105 195.752 27.3784 214.989 36.7241 235.508C42.9801 251.111 43.4068 254.916 38.9175 260.524ZM95.2475 358.41C89.2731 353.784 84.0669 347.62 81.8307 340.678C70.6416 313.703 75.8564 282.865 58.7184 258.199C56.4822 255.112 52.744 252.804 51.2589 249.718C35.5975 223.504 22.1807 197.299 -1.58037 180.183C-6.10384 175.25 -13.7767 169.12 -18.9061 162.972C-24.0355 156.825 -26.6557 150.661 -21.0654 145.634C5.77669 120.207 53.495 114.043 76.3001 147.523C79.4836 152.653 79.7141 160.048 79.1337 167.333C78.4054 174.673 76.9239 181.919 74.7127 188.955C80.3372 217.34 87.7966 245.862 90.6558 275.11C91.6629 283.01 92.5932 290.046 93.7198 296.023C94.505 316.012 104.201 333.744 106.437 353.015C107.137 359.179 99.6771 361.496 95.2475 358.41ZM593.282 521.811C567.182 514.117 538.104 514.117 514.249 531.062C488.149 551.102 498.588 581.941 501.575 609.719C503.06 621.287 489.626 628.999 479.734 621.253C472.104 616.978 464.26 609.659 459.02 605.008C451.508 595.981 445.839 585.564 442.334 574.349C441.313 566.876 441.184 559.307 441.95 551.804C443.768 533.328 450.357 515.604 459.873 499.556C464.672 491.534 470.145 483.937 476.235 476.848C482.234 469.836 488.765 463.299 495.771 457.295C499.236 457.791 501.506 461.331 502.718 468.273C502.275 473.317 505.996 477.943 510.468 480.243C538.846 491.032 576.878 492.546 593.282 521.811ZM290.559 551.128C259.987 554.214 233.888 536.482 206.303 526.462C198.101 523.376 189.157 523.376 180.741 523.709C171.157 517.374 164.687 508.431 160.309 498.368C155.93 488.305 153.652 477.139 152.44 466.358C151.706 459.399 152.32 453.679 153.976 450.609C157.304 444.454 159.165 442.838 167.23 441.205C175.296 439.572 190.147 439.076 199.279 451.251C202.937 457.355 206.775 463.223 210.792 468.854C214.809 474.486 219.009 479.921 223.39 485.159C242.841 509.457 265.953 527.958 290.559 548.007C290.93 548.442 291.134 548.996 291.134 549.568C291.134 550.14 290.93 550.693 290.559 551.128ZM-95.6686 769.282C-100.892 769.282 -103.871 762.348 -106.235 757.013C-108.428 752.131 -108.249 746.924 -103.512 724.755C-100.467 715.869 -95.7734 707.639 -89.6771 700.5C-78.6586 687.88 -63.8933 681.015 -47.2504 679.014C-50.2121 678.491 -53.213 678.222 -56.2205 678.211C-64.7469 678.57 -72.955 681.556 -79.7254 686.76C-86.3485 691.762 -91.8193 698.593 -96.3428 706.373C-105.364 722.267 -110.579 739.999 -114.309 758.526C-118.038 748.515 -118.781 738.494 -119.319 728.816C-119.651 719.215 -119.011 709.571 -119.191 699.867C-117.014 689.864 -115.137 686.769 -104.929 677.433C-95.404 672.465 -85.0939 670.396 -74.6814 670.234C-64.2674 670.205 -53.9012 671.644 -43.8876 674.509C-39.3812 675.671 -34.6444 677.364 -30.3855 678.587C-26.9033 678.792 -23.3755 679.18 -19.8023 679.75H-19.7596L-18.8549 679.886C-17.3613 679.886 -15.8762 677.569 -13.384 676.62C-6.74393 669.097 7.51779 665.112 10.6245 667.566C15.0029 670.131 10.6245 677.757 6.01567 686.615C2.02136 695.301 -7.64011 700.696 -14.3826 706.091C-37.495 723.054 -31.5292 751.575 -30.7866 778.558C-51.6799 772.368 -72.5562 766.204 -95.6686 769.282ZM-1.72545 828.651C-12.9061 839.441 -21.8592 817.083 -23.3442 805.515C-26.3314 781.628 -25.5804 757.723 -24.8378 733.826C-24.8378 723.037 -18.1294 713.786 -12.3855 704.945C-0.530563 701.397 5.86203 692.839 9.17355 686.29C12.2973 680.382 13.8592 673.953 22.0526 667.694C30.1788 661.396 37.8984 654.588 45.165 647.312C49.9275 651.997 42.2461 663.086 30.5278 674.397C30.1608 684.922 26.2603 696.156 22.1209 704.851C20.6444 708.391 20.6444 712.247 22.8805 713.786C51.9588 736.143 69.1138 766.204 85.5178 796.273C50.4737 768.512 24.4083 803.951 -1.72545 828.651ZM89.367 782.294C84.6558 781.439 77.4182 773.608 65.1451 756.645C54.1949 742.325 45.9929 724.593 28.8464 713.803C23.6231 709.947 26.6103 702.244 29.6487 696.592C34.4709 685.922 34.6416 674.808 44.2091 662.462C48.9801 655.99 53.4523 649.817 56.4395 642.883C66.1266 620.526 66.8691 579.675 89.239 579.675C113.845 580.445 110.124 618.217 96.9203 638.241C92.7127 645.841 88.4965 652.852 85.2105 659.059C81.9246 665.266 79.5775 670.661 79.0996 675.047C75.037 694.532 87.7198 709.947 94.4623 726.901C97.8165 735.391 100.437 744.642 100.974 754.004C100.428 763.117 101.922 783.936 89.367 782.294ZM210.033 729.201C213.087 732.427 214.789 736.703 214.789 741.149C214.789 745.595 213.087 749.871 210.033 753.097C189.899 774.685 174.246 802.438 145.168 811.68C138.459 813.997 131.384 813.612 124.684 811.457C117.996 809.229 111.878 805.557 106.761 800.702C102.92 797.043 103.023 794.179 105.199 780.448C106.906 769.051 105.139 757.988 102.946 746.967C100.753 735.947 98.1494 724.969 98.1494 713.786L107.094 716.094C113.453 717.264 119.924 717.706 126.383 717.411C115.439 713.631 105.51 707.38 97.3642 699.14C90.6558 691.445 92.1494 678.322 96.3485 667.506C99.3813 661.351 102.314 655.201 105.148 649.056C107.054 644.901 108.909 640.734 110.713 636.557C104.67 646.705 98.9602 655.588 95.9644 662.582C93.2248 669.738 90.4083 676.808 87.6771 683.768C86.9261 685.315 88.4196 688.436 87.6771 689.992C83.9474 693.857 82.4623 686.837 82.4623 686.068C80.7553 680.083 81.1223 673.038 82.3599 665.48C95.1622 639.831 121.236 609.736 104.883 581.385C96.4766 571.613 93.9417 567.005 93.1309 558.07C87.7539 528.001 59.4012 514.116 34.8123 501.027C28.1039 497.94 33.3869 487.305 37.091 484.466C43.4153 480.354 51.9417 478.285 62.1323 477.874C72.3229 477.464 84.0242 478.285 92.2262 482.517C124.249 499.078 135.754 535.089 133.014 571.015C134.494 564.773 135.808 558.401 136.957 551.898C137.708 547.272 139.945 541.108 145.159 541.108C154.855 541.108 164.551 551.128 166.044 557.301C166.787 574.255 154.095 586.592 149.239 601.34C146.03 609.394 143.145 617.123 141.558 623.655C139.609 631.527 140.253 639.819 143.393 647.295C146.224 654.494 149.915 661.324 154.386 667.635C160.317 676.552 168.289 684.503 175.381 689.188C180.186 693.745 189.891 699.14 189.131 699.91C185.619 705.582 180.898 710.406 175.304 714.034C188.158 714.684 200.073 718.334 210.033 729.201ZM329.7 573.032C327.839 585.857 322.624 603.546 312.92 604.316C301.235 605.629 289.438 605.574 277.765 604.153C282.886 608.479 285.361 614.353 282.357 622.826C262.667 620.261 243.413 614.464 223.834 610.326C237.43 613.814 250.77 618.713 262.974 622.826C252.528 626.673 242.098 633.615 237.617 643.636C233.302 652.834 228.072 661.573 222.007 669.721C215.884 678.063 208.378 685.292 199.817 691.095C194.926 696.396 191.435 695.857 177.686 685.649C169.193 679.066 160.514 671.602 153.993 663.308C147.472 655.015 142.957 645.782 142.983 634.77C143.683 628.956 147.25 622.8 152.627 618.235C164.073 609.608 176.789 606.162 189.95 605.812C184.888 605.635 179.82 605.778 174.775 606.239C166.565 606.975 164.047 606.778 165.634 604.906C159.438 608.325 153.344 611.951 147.404 615.883C149.64 601.238 155.606 587.362 163.065 575.281C167.546 570.656 169.893 569.117 177.174 566.979C189.122 565.004 204.067 558.07 212.269 566.543C213.233 567.535 213.361 570.365 212.738 573.52C214.693 569.014 222.127 562.892 228.673 563.465C262.223 565.774 298.01 578.111 330.033 560.302C330.733 561.14 330.912 562.944 329.7 573.032ZM429.242 382.306C435.216 382.306 441.925 380.767 447.882 380.767C462.792 381.537 478.454 388.462 485.913 403.116C479.939 399.269 473.239 398.499 467.273 401.577C428.499 420.848 388.232 431.646 344.986 439.349C336.041 440.888 328.582 430.099 322.147 423.165C317.111 416.718 313.697 409.314 312.963 403.458C332.32 363.035 392.713 382.306 429.242 382.306ZM462.622 295.245C453.105 312.934 435.208 329.896 413.589 324.502C399.633 320.787 386.503 314.463 374.892 305.863C389.521 316.927 405.455 326.083 422.533 332.213C401.657 348.398 372.57 334.522 347.956 340.079C332.397 340.575 327.993 339.814 335.64 328.494C335.231 321.793 334.045 315.163 332.107 308.736C333.43 317.602 331.253 325.656 322.624 332.213C299.751 349.945 281.145 369.259 268.172 392.155C276.041 379.331 286.488 367.643 296.525 358.418C305.469 387.709 307.706 423.943 336.11 441.025C346.633 447.745 348.835 449.378 350.226 452.311C352.445 457.09 351.703 464.032 347.23 466.341C340.311 469.41 333.141 471.879 325.799 473.719C318.267 475.65 310.53 476.669 302.755 476.754C298.631 476.77 294.514 476.38 290.465 475.592C300.656 478.157 310.701 477.789 320.73 476.746C331.74 475.592 342.733 473.668 353.922 474.053C362.124 474.053 368.09 480.986 371.068 488.698C374.798 497.949 372.579 508.816 366.007 516.844C356.9 528.01 347.956 538.808 338.448 548.52C331.765 555.463 329.683 556.566 326.679 556.514C296.508 545.742 268.172 528.779 245.137 505.37C240.029 500.055 235.357 494.337 231.165 488.271C227.009 482.328 223.422 476.004 220.454 469.385C229.398 464.759 239.845 460.134 248.038 462.442C254.568 464.366 261.088 466.717 267.617 468.863C273.156 470.727 278.713 472.497 284.337 473.942C283.296 473.6 282.263 473.223 281.256 472.804C274.494 470.035 268.665 465.383 264.46 459.399C253.765 444.65 253.364 428.303 258.485 412.504C255.694 419.736 253.443 427.166 251.751 434.733C251.935 423.14 252.914 411.574 254.679 400.115C251.273 413.261 248.8 426.632 247.279 440.128C246.872 443.831 245.482 447.358 243.253 450.342C241.024 453.325 238.037 455.655 234.605 457.09C221.179 462.485 206.269 457.09 198.622 445.009C190.01 435.34 174.724 435.605 166.104 435.605C157.484 435.605 155.444 435.408 153.6 434.75C151.54 433.839 149.783 432.356 148.539 430.475C147.745 428.996 148.07 427.371 147.08 418.505C155.819 415.94 163.381 414.342 170.713 412.067C178.034 409.795 185.13 406.853 191.913 403.278C216.664 402.022 227.043 380.459 236.704 359.487C239.922 352.502 243.071 345.577 246.639 339.481C250.027 334.211 252.856 328.6 255.08 322.74C252.535 328.639 249.334 334.232 245.538 339.412C241.299 345.833 236.176 351.621 230.32 356.606C224.661 359.35 217.45 359.017 207.225 360.521C197 362.026 186.229 362.137 175.885 361.992C170.03 362.206 160.454 366.01 156.297 366.746C155.444 366.575 153.831 366.652 154.667 366.267C164.482 359.675 172.838 352.639 179.691 348.013C196.3 338.096 206.772 322.159 211.373 303.794C209.666 306.889 207.105 308.608 203.29 307.556C197.328 305.937 191.476 303.938 185.768 301.571C179.99 299.254 174.212 296.749 168.246 294.432C165.024 294.474 161.827 293.848 158.858 292.594C162.211 294.937 165.881 296.788 169.757 298.092C177.567 303.009 185.805 307.207 194.371 310.634C198.101 312.173 201.831 318.329 198.852 323.732C195.302 331.059 189.464 337.514 182.542 342.661C175.475 348.253 167.085 355.092 158.166 361.325C146.653 369.208 128.755 379.22 119.068 366.113C113.845 359.949 115.339 351.476 116.832 344.534C122.047 301.366 117.575 259.738 112.565 217.075C111.933 210.406 112.659 208.662 113.478 208.525C119.768 215.049 123.02 224.479 126.212 233.251C131.862 248.563 136.855 266.064 146.055 279.419C141.046 269.544 138.775 256.771 135.788 247.272C132.511 233.593 144.417 228.908 151.569 224.188C156.69 221.256 157.91 221.811 161.811 228.933C169.057 240.441 184.001 238.894 193.663 244.323C205.612 251.265 210.818 266.68 213.054 280.556C213.548 282.752 213.856 284.986 213.976 287.234C214.809 272.094 212.46 256.948 207.08 242.775C205.586 239.697 222.741 239.697 229.45 245.092C238.195 251.367 245.341 259.618 250.309 269.177C252.306 272.99 253.971 276.969 255.285 281.069C255.148 280.454 255.02 279.847 254.875 279.231C252.383 268.433 248.747 257.806 245.111 247.401C251.747 246.061 258.644 247.189 264.511 250.572C270.024 253.744 274.624 258.737 278.405 264.671C286.087 276.7 295.065 292.885 290.593 303.675C286.377 313.242 282.186 322.843 278.166 332.504C281.689 326.508 285.588 320.742 289.842 315.242C301.023 300.597 290.585 283.608 285.686 268.971C283.509 260.772 281.512 252.915 278.935 242.083C277.159 228.908 272.696 216.57 271.945 203.464C272.028 201.457 272.82 199.545 274.181 198.069C277.159 195.752 281.632 197.299 282.383 199.608C285.643 206.345 288.698 213.048 291.651 219.717C291.302 218.793 290.935 217.87 290.568 216.938C287.41 208.713 284.431 200.369 281.632 191.905C279.771 186.501 274.42 183.517 267.873 182.303C260.661 181.568 251.871 182.748 244.65 184.654C248.969 181.178 253.688 178.233 258.707 175.882C241.296 181.671 223.407 185.373 204.937 188.844C217.578 187.741 230.841 188.468 242.841 185.928C250.983 184.124 265.236 181.876 265.987 186.501C268.974 208.859 276.425 229.677 277.168 252.804C265.987 242.775 249.583 244.314 236.448 240.834C227.929 239.436 219.321 238.656 210.69 238.5C202.01 238.278 193.287 238.5 184.718 238.902C175.765 238.902 166.078 235.055 164.055 225.086C162.434 215.775 163.654 212.372 169.467 204.113C174.55 198.36 181.122 194.125 188.457 191.879C179.512 193.418 171.31 196.496 164.602 203.438C166.095 189.562 174.297 175.686 188.457 173.377C195.174 172.027 201.788 171.009 208.343 170.111C214.898 169.214 221.358 168.401 227.785 167.495C250.343 168.752 274.957 145.617 294.357 162.579C297.068 167.898 299.274 173.459 300.946 179.191C300.57 174.6 300.178 170.052 299.58 165.666C289.885 140.222 257.819 162.579 239.836 164.631C233.777 166.242 227.623 167.47 221.41 168.307C215.185 169.133 208.89 169.282 202.633 168.752C209.911 167.509 217.089 165.732 224.107 163.434C231.182 161.16 238.198 158.604 245.239 156.193C247.117 155.338 249.02 154.525 250.932 153.824C243.003 155.756 235.1 157.808 227.179 159.758C220.087 161.724 212.96 163.716 205.765 165.64C198.57 167.564 191.324 169.393 183.993 171.06C167.529 174.942 161.563 192.648 158.405 208.14C156.689 212.702 154.021 216.844 150.58 220.291C147.139 223.737 143.004 226.41 138.451 228.13C132.477 230.447 125.845 228.908 124.292 221.196C123.916 212.33 125.265 203.797 125.999 195.051C127.706 170.351 142.215 156.842 160.991 149.994C167.446 147.679 174.122 146.035 180.912 145.086C215.459 147.976 250.229 143.668 283.031 132.433C291.242 129.663 299.398 126.465 307.501 122.84C317.358 120.207 324.067 111.726 333.763 110.187C334.234 110.076 334.723 110.065 335.2 110.153C335.676 110.241 336.129 110.428 336.53 110.7C336.931 110.972 337.271 111.325 337.529 111.735C337.787 112.146 337.958 112.605 338.03 113.085C337.876 112.11 337.697 111.144 337.492 110.187C331.518 79.348 333.762 47.774 353.896 24.6214C367.313 9.97582 385.953 -0.822433 405.703 -3.16505C408.857 -2.08292 411.61 -0.067667 413.597 2.61454C423.319 19.996 445.68 40.0365 434.491 60.077C406.872 110.956 370.343 153.32 347.973 205.772C320.883 182.927 342.186 144.565 338.235 114.291C338.284 117.06 337.379 119.762 335.674 121.942C332.952 126.936 330.229 130.219 318.852 141.752C318.11 142.547 316.616 144.864 315.873 144.864C308.321 144.706 300.766 145.04 293.256 145.865C285.575 146.719 277.979 147.951 270.417 149.464C272.832 149.199 275.282 149.011 277.723 148.883C288.886 148.318 300.238 149.071 311.376 149.404C317.615 147.763 323.41 143.684 329.452 139.273C330.519 148.677 329.922 157.962 329.7 167.11C329.478 176.259 329.606 185.296 332.09 194.119C334.838 205.823 335.358 208.423 335.017 212.774C333.831 218.109 336.067 224.274 330.852 228.164C326.772 230.977 321.464 231.849 317.725 229.07C321.575 235.287 326.541 240.737 332.371 245.143C333.251 245.773 333.952 246.622 334.403 247.606C333.672 243.292 333.44 238.909 333.711 234.542C334.272 227.513 336.069 220.638 339.02 214.236C341.256 210.389 346.479 211.928 347.23 214.236C351.418 223.942 357.251 232.848 364.471 240.561C385.996 262.79 417.31 275.905 448.625 274.366C450.861 274.366 453.105 275.905 454.915 277.615C469.245 284.763 469.432 287.977 462.622 295.245Z" fill="url(#paint0_linear_2_18)"/>
<defs>
<linearGradient id="paint0_linear_2_18" x1="917" y1="151.5" x2="-30" y2="581.5" gradientUnits="userSpaceOnUse">
<stop stop-color="white"/>
<stop offset="0.86937" stop-color="white" stop-opacity="0"/>
</linearGradient>
</defs>
</svg>
